<svg width="100" height="100" viewBox="0 0 100 100" fill="none" xmlns="http://www.w3.org/2000/svg">
<g clip-path="url(#clip0_248_344)">
<path d="M32.0188 67.7109V49.2002C32.0188 47.9274 31.839 46.8345 31.4793 45.9214C31.1196 45.0083 30.5524 44.3027 29.7776 43.8047C29.0029 43.279 27.9653 43.0161 26.6648 43.0161C25.6134 43.0161 24.7142 43.196 23.9671 43.5557C23.22 43.9154 22.6528 44.4549 22.2654 45.1743C21.8781 45.8937 21.6844 46.8068 21.6844 47.9136H7.69756C7.69756 45.8384 8.1541 43.9154 9.06719 42.1445C10.0079 40.346 11.3361 38.7827 13.0516 37.4546C14.7947 36.1265 16.8699 35.1027 19.2771 34.3833C21.712 33.6362 24.4236 33.2627 27.4119 33.2627C30.9813 33.2627 34.1632 33.8576 36.9578 35.0474C39.7801 36.2371 42.0075 38.0218 43.6399 40.4014C45.2724 42.7533 46.0887 45.7139 46.0887 49.2832V67.6694C46.0887 70.6024 46.2547 72.8298 46.5867 74.3516C46.9188 75.8457 47.3891 77.16 47.9979 78.2944V79H33.9695C33.3055 77.6165 32.8074 75.9287 32.4754 73.9365C32.171 71.9167 32.0188 69.8415 32.0188 67.7109ZM33.7205 51.5659L33.8035 59.0366H27.6194C26.319 59.0366 25.2122 59.2165 24.2991 59.5762C23.4137 59.9359 22.6943 60.4339 22.1409 61.0703C21.6152 61.679 21.2278 62.3708 20.9788 63.1455C20.7575 63.9202 20.6468 64.7365 20.6468 65.5942C20.6468 66.4243 20.8405 67.1714 21.2278 67.8354C21.6429 68.4718 22.1963 68.9699 22.888 69.3296C23.5797 69.6893 24.3545 69.8691 25.2122 69.8691C26.7617 69.8691 28.076 69.5786 29.1551 68.9976C30.2618 68.3888 31.1058 67.6556 31.6868 66.7979C32.2679 65.9401 32.5584 65.1377 32.5584 64.3906L35.6297 70.1182C35.0763 71.2249 34.4399 72.3455 33.7205 73.48C33.0288 74.6144 32.1572 75.6659 31.1058 76.6343C30.082 77.575 28.823 78.3498 27.3289 78.9585C25.8348 79.5396 24.0224 79.8301 21.8919 79.8301C19.125 79.8301 16.5794 79.2629 14.2552 78.1284C11.9586 76.994 10.1186 75.4168 8.73516 73.397C7.35169 71.3494 6.65996 68.9976 6.65996 66.3413C6.65996 64.0171 7.075 61.9419 7.90508 60.1157C8.76283 58.2896 10.0494 56.7401 11.7649 55.4673C13.4804 54.1945 15.6663 53.2261 18.3226 52.562C20.9788 51.8979 24.1054 51.5659 27.7024 51.5659H33.7205ZM74.5803 73.5215C76.4064 73.5215 78.0943 73.1479 79.6437 72.4009C81.1932 71.6538 82.466 70.63 83.4621 69.3296C84.4582 68.0015 85.0254 66.4935 85.1638 64.8057H92.4685C92.3301 67.4619 91.4309 69.9383 89.7707 72.2349C88.1382 74.5037 85.9938 76.3438 83.3376 77.7549C80.6813 79.1383 77.7622 79.8301 74.5803 79.8301C71.2046 79.8301 68.2578 79.2352 65.7399 78.0454C63.2497 76.8556 61.1745 75.2231 59.5144 73.1479C57.8819 71.0728 56.6506 68.6932 55.8205 66.0093C55.0181 63.2977 54.6169 60.4339 54.6169 57.418V55.6748C54.6169 52.6589 55.0181 49.8089 55.8205 47.125C56.6506 44.4134 57.8819 42.02 59.5144 39.9448C61.1745 37.8696 63.2497 36.2371 65.7399 35.0474C68.2578 33.8576 71.2046 33.2627 74.5803 33.2627C78.0943 33.2627 81.1656 33.9821 83.7941 35.4209C86.4227 36.832 88.4841 38.7689 89.9782 41.2314C91.5 43.6663 92.3301 46.4333 92.4685 49.5322H85.1638C85.0254 47.6784 84.4997 46.0044 83.5866 44.5103C82.7012 43.0161 81.4838 41.8263 79.9343 40.9409C78.4125 40.0278 76.6278 39.5713 74.5803 39.5713C72.2284 39.5713 70.25 40.0417 68.6452 40.9824C67.0681 41.8955 65.8091 43.1406 64.8684 44.7178C63.9553 46.2673 63.2912 47.9966 62.8762 49.9058C62.4888 51.7873 62.2951 53.7103 62.2951 55.6748V57.418C62.2951 59.3825 62.4888 61.3193 62.8762 63.2285C63.2635 65.1377 63.9138 66.867 64.8269 68.4165C65.7676 69.966 67.0266 71.2111 68.6037 72.1519C70.2085 73.0649 72.2007 73.5215 74.5803 73.5215Z" fill="#873838"/>
</g>
<defs>
<clipPath id="clip0_248_344">
<rect width="100" height="100" fill="white"/>
</clipPath>
</defs>
</svg>
